<svg xmlns="http://www.w3.org/2000/svg" width="1910" height="159"><g fill="#FFF"><path d="M79.625 132.502L53.047 106.01 26.57 132.502zM79.546 79.479L52.968 52.987 26.492 79.479zM53.14 52.846L26.561 26.354.085 52.846zM79.344 26.347L52.907-.005 26.57 26.347zM185.745 132.502l-26.578-26.492-26.477 26.492zM106.17 159l-26.579-26.493L53.115 159zM185.667 79.479l-26.579-26.492-26.476 26.492zM159.26 52.846l-26.579-26.492-26.475 26.492zM212.286 159l-26.578-26.492L159.231 159zM318.352 159l-26.579-26.493L265.297 159zM212.217 105.998l-26.579-26.493-26.476 26.493zM291.75 79.479l-26.579-26.492-26.476 26.492zM318.01 52.846l-26.579-26.492-26.476 26.492zM291.547 26.347L265.11-.005l-26.337 26.352zM371.463 159l-26.579-26.493L318.409 159zM318.342 105.998l-26.579-26.493-26.476 26.493zM397.87 79.479l-26.579-26.492-26.476 26.492zM450.953 79.479l-26.578-26.492-26.477 26.492zM424.526 159l-26.579-26.493L371.471 159zM451.011 132.502l-26.578-26.492-26.477 26.492zM902.066 159l-26.579-26.493L849.011 159zM450.729 26.347L424.292-.005l-26.336 26.352zM530.609 159l-26.579-26.493L477.554 159zM557.094 132.502l-26.578-26.492-26.477 26.492zM557.015 79.479l-26.578-26.492-26.477 26.492zM530.609 52.846L504.03 26.354l-26.476 26.492zM636.729 159l-26.579-26.493L583.674 159zM583.607 105.998l-26.579-26.493-26.476 26.493zM636.729 52.846L610.15 26.354l-26.476 26.492zM662.933 26.347L636.496-.005l-26.337 26.352zM689.843 159l-26.579-26.493L636.789 159zM716.328 132.502L689.75 106.01l-26.477 26.492zM689.758 105.998l-26.579-26.493-26.476 26.493zM689.843 52.846l-26.579-26.492-26.475 26.492zM716.047 26.347L689.61-.005l-26.337 26.352zM795.963 159l-26.579-26.493L742.909 159zM822.448 132.502L795.87 106.01l-26.476 26.492zM742.842 105.998l-26.579-26.493-26.476 26.493zM822.37 79.479l-26.579-26.492-26.476 26.492zM795.963 52.846l-26.579-26.492-26.475 26.492zM822.167 26.347L795.73-.005l-26.336 26.352zM875.432 79.479l-26.578-26.492-26.477 26.492z"/><path d="M955.109 159l-26.579-26.493L902.054 159zM981.594 132.502l-26.578-26.492-26.477 26.492zM901.982 105.998l-26.579-26.493-26.476 26.493zM981.516 79.479l-26.579-26.492-26.477 26.492zM955.109 52.846L928.53 26.354l-26.476 26.492zM981.312 26.347L954.875-.005l-26.336 26.352zM1061.229 159l-26.579-26.493L1008.174 159zM1061.145 105.998l-26.581-26.493-26.475 26.493zM1087.635 79.479l-26.578-26.492-26.477 26.492zM1087.433 26.347L1060.996-.005l-26.337 26.352z"/><path d="M1114.279 159l-26.578-26.493L1061.225 159zM1167.08 52.854l-26.578-26.491-26.477 26.491zM1140.483 26.347L1114.047-.005l-26.337 26.352zM1220.363 159l-26.58-26.493L1167.309 159zM1246.848 132.502l-26.578-26.492-26.477 26.492zM1246.77 79.479l-26.58-26.492-26.475 26.492zM1220.363 52.846l-26.58-26.492-26.474 26.492zM1246.566 26.347L1220.129-.005l-26.336 26.352zM1352.968 132.502l-26.578-26.492-26.477 26.492zM1432.353 52.846l-26.579-26.492-26.476 26.492zM1352.687 26.347L1326.25-.005l-26.337 26.352zM1379.545 159l-26.578-26.493L1326.49 159zM1406.03 132.502l-26.578-26.492-26.476 26.492zM1405.749 26.347L1379.312-.005l-26.336 26.352zM1485.629 159l-26.58-26.493L1432.574 159zM1512.113 132.502l-26.578-26.492-26.476 26.492zM1432.502 105.998l-26.579-26.493-26.476 26.493zM1512.035 79.479l-26.579-26.492-26.476 26.492zM1591.748 159l-26.578-26.493L1538.693 159zM1618.233 132.502l-26.578-26.492-26.476 26.492zM1538.627 105.998l-26.579-26.493-26.476 26.493zM1591.748 52.846l-26.578-26.492-26.477 26.492zM1617.952 26.347L1591.516-.005l-26.337 26.352zM1671.066 26.347L1644.629-.005l-26.336 26.352zM1777.468 132.502l-26.578-26.492-26.477 26.492zM1750.898 105.998l-26.58-26.493-26.475 26.493z"/><path d="M1697.861 105.998l-26.579-26.493-26.475 26.493zM1750.982 52.846l-26.578-26.492-26.476 26.492zM1777.187 26.347L1750.75-.005l-26.337 26.352zM1804.045 159l-26.578-26.493L1750.99 159zM1830.53 132.502l-26.578-26.492-26.476 26.492zM1910.129 159l-26.58-26.493L1857.074 159zM1910.043 105.998l-26.578-26.493-26.477 26.493zM1910.129 52.846l-26.58-26.492-26.475 26.492zM1883.504 79.471l-26.58-26.492-26.475 26.492z"/></g></svg>