<svg xmlns="http://www.w3.org/2000/svg" viewBox="0 0 349 25"><g fill="#FFF"><path d="M8.146 17.938c0 .917.083 1.599.248 2.041.163.44.435.837.816 1.188H4.29c.388-.35.664-.747.823-1.188.16-.442.24-1.124.24-2.041V4.937H3.902c-.994 0-1.802.078-2.42.234S.368 5.581 0 5.928l.887-2.989h12.808l-.838 2.937a2.34 2.34 0 0 0-1.05-.711c-.436-.153-.983-.228-1.644-.228H8.146v13.001zM17.798 18.368c0 .802.07 1.397.208 1.785.141.387.378.732.716 1.038h-4.303c.329-.305.565-.65.708-1.038.141-.387.213-.983.213-1.785V8.048c0-.804-.072-1.397-.213-1.78a2.6 2.6 0 0 0-.708-1.023h4.303a2.52 2.52 0 0 0-.716 1.023c-.137.382-.208.976-.208 1.78v3.571h8.447V8.048c0-.804-.069-1.397-.209-1.78a2.494 2.494 0 0 0-.713-1.023h4.303c-.329.298-.566.64-.707 1.023-.143.382-.215.976-.215 1.78v10.32c0 .802.07 1.397.208 1.785.14.387.377.732.714 1.038h-4.303c.336-.305.576-.65.713-1.038.14-.387.209-.983.209-1.785v-4.912h-8.447v4.912zM31.714 21.19a2.64 2.64 0 0 0 .708-1.039c.142-.386.215-.983.215-1.786V8.059c0-.805-.073-1.402-.215-1.787a2.585 2.585 0 0 0-.708-1.026h8.591v2.518a3.687 3.687 0 0 0-1.265-.674 5.557 5.557 0 0 0-1.588-.208c-.309 0-.656.023-1.04.075-.385.05-.817.126-1.298.226v4.492h3.852v2.316a1.453 1.453 0 0 0-.735-.456c-.311-.088-.877-.134-1.7-.134h-1.417v5.716c.594.09 1.134.159 1.615.204.482.046.899.071 1.252.071.8 0 1.552-.109 2.259-.326a8.214 8.214 0 0 0 2.089-.997l-1.097 3.121h-9.518zM62.686 21.226v-1.371c-.873.635-1.752 1.107-2.635 1.42a8.166 8.166 0 0 1-2.698.467c-1.039 0-1.967-.174-2.781-.521a5.615 5.615 0 0 1-2.108-1.566 4.97 4.97 0 0 1-.998-1.913c-.201-.726-.303-1.705-.303-2.932V6.276c0-.914-.08-1.589-.236-2.024a2.909 2.909 0 0 0-.802-1.164h4.877c-.375.34-.643.728-.801 1.164-.156.435-.236 1.11-.236 2.024v7.971c0 1.246.06 2.17.179 2.771.12.599.322 1.08.606 1.438.341.425.797.747 1.368.961.567.212 1.245.319 2.037.319.646 0 1.27-.098 1.833-.294a4.456 4.456 0 0 0 1.491-.855c.376-.314.645-.723.811-1.221.162-.502.243-1.184.243-2.046V6.276c0-.949-.077-1.634-.232-2.057a2.802 2.802 0 0 0-.804-1.13h4.913a2.81 2.81 0 0 0-.814 1.19c-.165.461-.246 1.128-.246 1.997v11.749c0 .911.081 1.586.243 2.025.166.44.434.829.814 1.176h-3.721zM83.806 5.246c-.338.298-.575.64-.715 1.022-.139.381-.208.976-.208 1.779v13.512c-.549-.017-1.069-.197-1.562-.539-.493-.345-1.109-1.002-1.852-1.965L71.363 8.678v9.687c0 .837.066 1.44.203 1.814.135.377.369.713.702 1.011h-3.564c.331-.305.567-.65.708-1.039.143-.386.215-.981.215-1.786V8.047c0-.803-.072-1.398-.215-1.779a2.566 2.566 0 0 0-.708-1.022h3.188l9.292 11.973V8.047c0-.803-.07-1.398-.213-1.779a2.586 2.586 0 0 0-.708-1.022h3.543zM89.759 18.365c0 .805.068 1.4.208 1.786.139.389.375.734.714 1.039h-4.306c.338-.305.576-.65.714-1.039.138-.386.208-.981.208-1.786V8.047c0-.803-.071-1.398-.208-1.779a2.484 2.484 0 0 0-.714-1.022h4.306c-.339.298-.575.64-.714 1.022-.14.381-.208.976-.208 1.779v10.318zM99.798 21.595c-.67-.176-1.244-.56-1.718-1.153-.474-.595-.91-1.48-1.312-2.66l-3.18-9.287a16.917 16.917 0 0 0-.729-1.871 11.61 11.61 0 0 0-.773-1.379l3.246.01c.016.262.041.503.08.725.037.221.085.432.146.631l3.823 11.411 3.617-9.505c.104-.291.189-.583.254-.879.064-.293.098-.562.098-.809 0-.213-.063-.441-.183-.682-.121-.243-.322-.542-.607-.902h3.597l-6.359 16.35zM107.255 21.19c.33-.305.566-.652.709-1.039.143-.386.213-.983.213-1.786V8.059c0-.805-.07-1.402-.213-1.787a2.608 2.608 0 0 0-.709-1.026h8.578v2.518a3.66 3.66 0 0 0-1.257-.674 5.509 5.509 0 0 0-1.586-.208 7.74 7.74 0 0 0-1.037.075c-.384.05-.816.126-1.298.226v4.492h3.848v2.316a1.444 1.444 0 0 0-.732-.456c-.308-.088-.876-.134-1.699-.134h-1.417v5.716c.595.09 1.133.159 1.614.204.484.046.899.071 1.254.071.793 0 1.542-.109 2.244-.326a8.287 8.287 0 0 0 2.085-.997l-1.099 3.121h-9.498zM122.326 18.368c0 .802.07 1.397.209 1.785.137.387.375.732.714 1.038h-4.306c.33-.305.565-.65.709-1.038s.214-.983.214-1.785V8.053c0-.805-.07-1.399-.214-1.784a2.61 2.61 0 0 0-.709-1.023h5.435c1.549 0 2.8.376 3.752 1.125.953.751 1.43 1.727 1.43 2.929 0 .872-.287 1.643-.858 2.308-.573.667-1.463 1.251-2.667 1.757l4.078 5.52c.241.329.531.676.869 1.044.339.368.727.749 1.167 1.146l-1.224.115h-.192a3.364 3.364 0 0 1-1.671-.459 4.217 4.217 0 0 1-1.379-1.262l-4.671-6.545c1.392-.315 2.407-.746 3.052-1.292.642-.548.964-1.253.964-2.12 0-.805-.275-1.459-.829-1.965-.55-.506-1.274-.758-2.171-.758-.203 0-.447.018-.733.051a15.78 15.78 0 0 0-.969.155v11.373zM132.914 20.832l-.751-2.894c.917.619 1.807 1.083 2.669 1.383a7.613 7.613 0 0 0 2.553.455c1.075 0 1.939-.236 2.597-.705.652-.472.981-1.083.981-1.832 0-.215-.034-.429-.102-.645a2.317 2.317 0 0 0-.293-.608c-.285-.437-1.246-1.061-2.878-1.874a43.82 43.82 0 0 1-.959-.469c-1.527-.782-2.58-1.501-3.151-2.16-.572-.657-.857-1.439-.857-2.343 0-1.295.524-2.322 1.569-3.083 1.042-.763 2.466-1.143 4.277-1.143.519 0 1.091.034 1.717.104a23.48 23.48 0 0 1 2.036.321v2.68a7.646 7.646 0 0 0-1.954-1.12 5.813 5.813 0 0 0-2.046-.368c-.897 0-1.619.195-2.163.586-.547.39-.82.9-.82 1.528 0 .559.215 1.055.643 1.482.426.43 1.391 1.004 2.886 1.725.083.038.211.1.385.184 1.264.587 2.209 1.132 2.835 1.628.467.369.83.817 1.089 1.345.262.526.389 1.089.389 1.688 0 1.369-.615 2.53-1.851 3.483-1.235.953-2.776 1.43-4.63 1.43-.598 0-1.235-.065-1.922-.196a17.73 17.73 0 0 1-2.249-.582zM149.081 18.365c0 .805.069 1.4.209 1.786.14.389.375.734.714 1.039H145.7c.337-.305.577-.65.716-1.039.137-.386.208-.981.208-1.786V8.047c0-.803-.07-1.398-.208-1.779a2.508 2.508 0 0 0-.716-1.022h4.304a2.5 2.5 0 0 0-.714 1.022c-.14.381-.209.976-.209 1.779v10.318zM222.773 0l1.445 3.53 5.498 13.777c.609 1.532 1.086 3.032 2.592 3.807v.082h-5.423v-.082c1.3-.588 1.083-.881.376-2.756l-1.432-3.785h-6.7l-1.376 3.785c-.555 1.501-.739 2.274.528 2.756v.082h-4.866v-.082c1.532-.775 1.985-2.275 2.566-3.807L222.772.108V0zm-.311 5.815l-2.646 6.773h5.244l-2.598-6.773zM189.241 21.582a9.778 9.778 0 0 1-3.386-.581c-1.057-.389-1.965-.943-2.729-1.67a7.862 7.862 0 0 1-1.848-2.704 8.341 8.341 0 0 1-.65-3.267 8.402 8.402 0 0 1 1.615-4.962 8.362 8.362 0 0 1 3.046-2.594c1.21-.605 2.527-.908 3.951-.908 1.221 0 2.362.194 3.421.581a7.69 7.69 0 0 1 2.729 1.671 7.73 7.73 0 0 1 1.867 2.714 8.823 8.823 0 0 1 .644 3.381 7.835 7.835 0 0 1-.724 3.263 8.824 8.824 0 0 1-2.035 2.824 7.957 7.957 0 0 1-2.68 1.681 9.023 9.023 0 0 1-3.221.571zm.089-14.995c-1.748 0-3.189.608-4.324 1.823-1.133 1.218-1.701 2.772-1.701 4.662 0 1.953.562 3.572 1.685 4.86 1.124 1.292 2.524 1.935 4.205 1.935 1.742 0 3.178-.609 4.313-1.83 1.13-1.22 1.697-2.78 1.697-4.677 0-1.953-.559-3.568-1.682-4.85-1.123-1.283-2.52-1.923-4.193-1.923zM202.593 18.383c0 .806.067 1.399.206 1.784.141.382.38.728.72 1.03h-4.307c.332-.302.568-.648.709-1.03.142-.385.215-.978.215-1.784V8.076c0-.805-.073-1.402-.215-1.787a2.564 2.564 0 0 0-.709-1.025h8.605V7.78a3.763 3.763 0 0 0-1.266-.674c-.458-.138-.99-.208-1.594-.208-.316 0-.661.025-1.047.075-.383.051-.815.127-1.298.228v4.491h3.866v2.316a1.468 1.468 0 0 0-.74-.455c-.31-.089-.881-.133-1.71-.133h-1.437v4.963zM236.037 18.387c0 .802.068 1.396.209 1.779.139.382.379.728.715 1.03h-4.307c.331-.302.566-.648.708-1.03.146-.383.215-.978.215-1.779V8.07c0-.805-.069-1.4-.215-1.783a2.548 2.548 0 0 0-.708-1.023h5.436c1.551 0 2.802.374 3.755 1.125.951.749 1.428 1.726 1.428 2.929 0 .872-.286 1.642-.858 2.308s-1.463 1.252-2.668 1.756l4.079 5.521c.241.33.529.678.871 1.042.339.366.722.744 1.163 1.141l-1.219.111h-.191a3.358 3.358 0 0 1-1.672-.454 4.128 4.128 0 0 1-1.379-1.255l-4.677-6.546c1.394-.314 2.407-.745 3.055-1.292.642-.549.964-1.254.964-2.119 0-.806-.275-1.46-.831-1.966-.548-.505-1.271-.758-2.171-.758-.203 0-.447.018-.73.052-.288.034-.609.086-.971.156v11.372zM250.583 18.384c0 .805.068 1.399.203 1.782.141.382.381.728.719 1.03h-4.303c.332-.302.572-.648.711-1.03.14-.383.21-.978.21-1.782V8.064c0-.804-.07-1.397-.21-1.78a2.53 2.53 0 0 0-.711-1.021h4.303a2.513 2.513 0 0 0-.719 1.021c-.135.383-.203.976-.203 1.78v10.32zM266.511 18.215l-1.141 2.981h-12.246l8.355-13.882a15.89 15.89 0 0 0-1.767-.356 11.417 11.417 0 0 0-1.542-.115 7.7 7.7 0 0 0-2.01.26 8.678 8.678 0 0 0-1.968.824l1.082-2.663h10.185l-8.355 13.877c.929.11 1.709.188 2.344.233.63.048 1.18.07 1.639.07 1.082 0 2.076-.102 2.972-.308a9.214 9.214 0 0 0 2.452-.921zM275.556 21.582a9.76 9.76 0 0 1-3.388-.581c-1.062-.389-1.97-.943-2.728-1.67a7.9 7.9 0 0 1-1.852-2.704 8.375 8.375 0 0 1-.648-3.267c0-.896.135-1.765.414-2.607a8.48 8.48 0 0 1 1.2-2.355 8.368 8.368 0 0 1 3.048-2.594c1.207-.605 2.529-.908 3.953-.908a9.89 9.89 0 0 1 3.418.581 7.73 7.73 0 0 1 2.73 1.671 7.75 7.75 0 0 1 1.865 2.714 8.86 8.86 0 0 1 .642 3.381c0 1.112-.241 2.198-.724 3.263s-1.159 2.007-2.033 2.824a7.971 7.971 0 0 1-2.681 1.681 9 9 0 0 1-3.216.571zm.086-14.995c-1.754 0-3.191.608-4.326 1.823-1.133 1.218-1.701 2.772-1.701 4.662 0 1.953.562 3.572 1.688 4.86 1.122 1.292 2.521 1.935 4.202 1.935 1.739 0 3.178-.609 4.313-1.83 1.133-1.22 1.701-2.78 1.701-4.677 0-1.953-.562-3.568-1.684-4.85-1.123-1.283-2.523-1.923-4.193-1.923zM300.591 5.264a2.429 2.429 0 0 0-.715 1.021c-.141.383-.209.976-.209 1.78v13.5c-.55-.017-1.07-.193-1.562-.536s-1.108-.994-1.852-1.955l-8.108-10.377v9.688c0 .833.069 1.44.204 1.811.135.372.367.708.7 1.001h-3.561a2.68 2.68 0 0 0 .708-1.03c.142-.383.217-.978.217-1.782V8.064c0-.804-.075-1.397-.217-1.78a2.614 2.614 0 0 0-.708-1.021h3.187l9.292 11.972V8.064c0-.804-.074-1.397-.216-1.78a2.58 2.58 0 0 0-.707-1.021h3.547zM304.259 19.051c-.068.16-.121.327-.154.499-.033.17-.048.348-.048.53a.99.99 0 0 0 .162.5 3 3 0 0 0 .523.616h-3.706a3.15 3.15 0 0 0 .832-.877c.244-.371.494-.882.748-1.534l4.422-11.375c.091-.215.159-.425.205-.631a2.77 2.77 0 0 0 .066-.552c0-.184-.045-.352-.127-.505a1.615 1.615 0 0 0-.427-.458h3.571l5.002 13.36c.23.606.485 1.096.75 1.474.271.375.612.743 1.037 1.099h-4.502l.055-.055c.414-.44.621-.765.621-.97 0-.243-.088-.601-.271-1.074-.022-.078-.044-.135-.056-.173l-1.348-3.686h-5.855l-1.5 3.812zm2.127-5.413h4.631l-2.226-6.161-2.405 6.161zM164.324 5.247l4.087 6.95 2.752-4.526c.167-.276.294-.525.379-.752.084-.226.131-.419.131-.582 0-.183-.054-.364-.163-.543a2.082 2.082 0 0 0-.506-.546h3.677l-5.399 8.776v4.354c0 .805.072 1.4.212 1.788.148.389.385.733.715 1.038h-4.332c.338-.305.579-.649.716-1.038.138-.388.209-.983.209-1.788l.006-4.398-3.693-6.082c-.372-.545-.647-.629-1.004-.756-.382-.133-1.023-.147-1.607-.147h-1.76v11.383c0 .805.067 1.4.213 1.788.143.389.38.733.71 1.038h-4.308a2.6 2.6 0 0 0 .715-1.038c.136-.388.207-.983.207-1.788V6.993h-1.262c-.875 0-1.583.068-2.125.207-.541.139-.977.36-1.302.666l.779-2.619h11.953z"/></g></svg>